<?xml version="1.0" encoding="UTF-8"?>
<svg version="1.1" viewBox="0 0 1023 803" width="1023" height="803" xmlns="http://www.w3.org/2000/svg">
<path transform="translate(0)" d="m0 0h1023v803h-1023z" fill="#FEFEFE"/>
<path transform="translate(408,130)" d="m0 0 9 3 20 6 20 4 22 2 121 1 17 3 13 5 13 7 12 11 6 10 4 11 21 5 16 8 12 11 7 10 5 14 1 5v20l-4 15-5 9h-2l-7-11-7-6-10-4-5-1h-10l-16 4-11 6-12 11-6 9-5 11-3 13v20l3 15 5 12 7 9 7 6 9 4 14 3 4 4 1 5-3 6-2 1h-11l-14-4-12-7-11-11-8-14-5-16-2-12v-21l3-16 6-15 9-13 2-3-11 7-8 7-8 11-6 13-3 11-1 7v22l2 14 5 15 7 12 9 11 12 9 13 6 19 5 7 3 2 3-1 8-4 3h-8l-17-4-15-6-11-7-10-9-8-8-7-11-7-14-4-14-4-33-5-16-8-16-8-10-6-7-13-10-16-8-15-5-18-2-16 1-17 4-16 7-14 9-12 11-10 14-8 16-4 15-3 22-5 12-7 9-10 8-12 5-3 1h-10l-4-4v-8l4-4 13-4 8-5 6-8 3-8 1-25 3-21 6-21 8-17 10-15 11-12 8-8 14-10 15-8 21-7 18-3 6 3 2 4-1 6-4 4-23 5-15 6-13 7-10 8-9 8-9 12 4-2 15-10 15-7 16-5 12-2h28l15 3 17 6 16 9 10 8 10 9 10 13 6 10 1 1 7-14 8-10 7-8 13-10 16-8 15-5 11-2h30l15 4 10 5v-10l-4-11-6-8-7-6-10-5-14-4-12-1-11 3h-13l-9 10-8 3h-8l-8-3-5-5-5-8-1-9h-44l5-4 16-8 9-3 7-1h14l16 3 24 7h12l-3-9-8-9-10-6-12-5-15-3-124-1-26-3-12-2 7 8 10 8 17 9 12 5v1l-25 4-20 6-17 8-15 10-10 8-15 15-10 14-9 16-8 19-5 18-3 17-2 30-4 4-7 1-5-4-1-3v-13l3-29 5-20 8-22 9-17 8-12 8-10 9-10 8-8 13-10 16-10 19-9-6-7-9-12-6-13-3-11z" fill="#262426"/>
<path transform="translate(755,610)" d="m0 0h64l15 4 11 6 10 9 6 10 4 10 2 11v9l-3 16-6 12-11 12-10 6-15 5-7 1h-60z" fill="#262323"/>
<path transform="translate(477,208)" d="m0 0 7 3 2 4-1 6-4 4-23 5-15 6-13 7-10 8-9 8-9 12 4-2 15-10 15-7 16-5 12-2h28l15 3 17 6 16 9 10 8 10 9 10 13 6 10 2 1 3 10 5 15v6h2l2 27 4 15 8 16 11 13 13 9 11 5 19 5 7 3 2 3-1 8-4 3h-8l-17-4-15-6-11-7-10-9-8-8-7-11-7-14-4-14-4-33-5-16-8-16-8-10-6-7-13-10-16-8-15-5-18-2-16 1-17 4-16 7-14 9-12 11-10 14-8 16-4 15-3 22-5 12-7 9-10 8-12 5-3 1h-10l-4-4v-8l4-4 13-4 8-5 6-8 3-8 1-25 3-21 6-21 8-17 10-15 11-12 8-8 14-10 15-8 21-7z" fill="#273E65"/>
<path transform="translate(466,279)" d="m0 0h22l16 4 16 8 10 8 8 8 8 13 5 12 3 13v33l-4 24-6 20-8 20-9 16 1 5 7 9 16 16 17 12 19 10 10 4 3 4v7l-5 5-8-1-16-7-14-8-14-10-13-12-10-10-4-5-3 1-9 11-19 19-14 11-18 12-18 10h-7l-5-5v-6l5-5 19-11 17-12 11-9 10-9 7-8 10-12 11-17 9-17 9-25 5-25 1-12v-16l-3-15-8-16-11-12-14-8-9-3-5-1h-20l-12 3-12 6-12 10-7 10-5 11-3 15-2 16-5 15-6 11-12 14-12 9-14 7-17 5h-7l-5-4v-8l4-4 20-6 11-6 10-8 8-10 6-13 2-7 2-19 4-15 7-14 8-10 10-10 15-9 13-5z" fill="#273E65"/>
<path transform="translate(468,314)" d="m0 0h19l11 4 8 6 8 9 5 11 1 5v26l-4 22-7 21-8 16-9 15-13 16-8 9-8 7-12 10-15 10-18 10-17 7h-6l-5-5v-6l5-5 27-13 17-11 11-9 12-11 11-13 10-15 8-15 6-16 4-17 1-6v-26l-5-10-7-6-8-3h-10l-10 4-8 9-3 8-2 18-5 19-6 14-9 14-11 12-10 9-15 10-15 7-15 5-4 1h-7l-5-5v-6l5-5 24-8 13-7 11-8 8-7 10-13 8-15 5-17 3-23 4-11 7-9 8-7 11-5z" fill="#273E65"/>
<path transform="translate(205,608)" d="m0 0h25l16 4 10 5 1 2-8 18-15-6-9-2h-15l-9 3-4 6 1 7 4 4 16 5 20 5 12 6 8 8 3 8v15l-4 9-7 8-10 6-10 3-9 1h-13l-14-2-13-4-10-5-3-2 1-5 8-15 17 8 12 3h17l8-3 4-5v-6l-5-5-11-4-25-7-9-4-6-4-6-7-2-6v-15l4-9 5-7 11-7z" fill="#273E65"/>
<path transform="translate(634,634)" d="m0 0h15l12 3 8 4 6 5 5 8 3 13v54h-23l-1-8-8 6-8 3h-20l-10-4-8-7-4-8v-14l4-8 7-6 10-4 5-1h31l-4-12-5-2-7-2h-8l-13 3-7 4h-2l-8-15v-2l12-6 11-3z" fill="#273E65"/>
<path transform="translate(406,634)" d="m0 0h10l13 3 11 6 9 9 5 11 2 9v13h-66l3 7 5 6 11 4h12l11-4 4-3 4 2 10 11-5 6-12 6-7 2-14 1-14-2-12-5-9-7-7-9-4-11-1-6v-10l3-12 5-9 7-8 10-6z" fill="#273E65"/>
<path transform="translate(500,634)" d="m0 0h16l15 3 9 4-1 5-6 12-6-1-9-3-14-1-9 2-3 3 1 6 8 3 25 5 10 5 6 7 2 7v8l-3 8-7 8-10 5-7 2-15 1-16-2-13-4-7-4 2-6 5-11 5 1 10 4 10 2h12l7-2 2-2v-6l-5-3-28-6-9-4-6-5-3-7v-12l5-10 7-6 10-4z" fill="#273E65"/>
<path transform="translate(455,175)" d="m0 0 19 9 9 4v1l-25 4-20 6-17 8-15 10-10 8-15 15-10 14-9 16-8 19-5 18-3 17-2 30-4 4-7 1-5-4-1-3v-13l3-29 5-20 8-22 9-17 8-12 8-10 9-10 8-8 13-10 16-10 19-9 8-3z" fill="#273E65"/>
<path transform="translate(780,631)" d="m0 0h34l11 4 8 7 5 8 2 6v18l-3 9-6 8-9 6-6 2-7 1h-28l-1-1z" fill="#FEFEFE"/>
<path transform="translate(473,349)" d="m0 0h7l4 4 1 2v11l-3 19-5 16-8 18-10 15-8 10-16 16-17 12-16 9-25 10h-7l-5-5v-6l5-5 25-10 19-11 11-9 10-9 11-14 8-13 7-15 5-19 2-20 2-4z" fill="#273E65"/>
<path transform="translate(324,604)" d="m0 0h24v117h-24z" fill="#273E65"/>
<path transform="translate(705,610)" d="m0 0h25v111h-25z" fill="#262322"/>
<path transform="translate(277,636)" d="m0 0h25v85h-25z" fill="#273E65"/>
<path transform="translate(560,636)" d="m0 0h24v85h-24z" fill="#273E65"/>
<path transform="translate(511,512)" d="m0 0h11l8 4 12 9 19 12 2 4-1 7-5 4-7-1-16-10-16-11-6 1-10 9-17 13-10 6-7-1-3-3v-8l5-5 16-12 11-9 9-7z" fill="#273E65"/>
<path transform="translate(568,412)" d="m0 0 6 2 14 16 10 9 17 10 17 6 16 4 3 5-1 6-4 4h-9l-19-5-16-7-16-10-15-14-10-13v-8l4-4z" fill="#273E65"/>
<path transform="translate(552,448)" d="m0 0 7 1 11 11 14 10 16 9 17 6 8 3 3 3 1 6-3 5-1 1h-9l-21-7-19-10-11-8-14-12-4-5-1-6 3-5z" fill="#273E65"/>
<path transform="translate(287,598)" d="m0 0 9 1 6 4 2 4v9l-4 6-8 3-9-1-7-6-1-3v-7l3-5 5-4z" fill="#273E65"/>
<path transform="translate(569,598)" d="m0 0 9 1 6 4 2 4v9l-4 6-7 3-10-1-6-5-2-5 1-8 5-6z" fill="#273E65"/>
<path transform="translate(634,685)" d="m0 0h24v9l-4 7-7 4-10 1-9-3-3-4v-8l5-5z" fill="#FEFEFE"/>
<path transform="translate(405,653)" d="m0 0h12l8 4 6 7 1 6h-42l1-6 7-8z" fill="#FEFEFE"/>
</svg>
